<svg width="24" height="24" viewBox="0 0 24 24" fill="none" xmlns="http://www.w3.org/2000/svg">
<g clip-path="url(#clip0_668_48)">
<path fill-rule="evenodd" clip-rule="evenodd" d="M9.25 0.75C8.00735 0.75 7 1.75736 7 3C7 4.24264 8.00735 5.25 9.25 5.25C10.4927 5.25 11.5 4.24264 11.5 3C11.5 1.75736 10.4927 0.75 9.25 0.75ZM0.75 8C0.75 6.75735 1.75736 5.75 3 5.75C4.24264 5.75 5.25 6.75735 5.25 8C5.25 9.24265 4.24264 10.25 3 10.25C1.75736 10.25 0.75 9.24265 0.75 8ZM8.4595 6.81215C8.7184 6.77535 8.99955 6.75 9.284 6.75C9.5665 6.75 9.8464 6.775 10.1046 6.8114C11.0331 6.9422 11.629 7.75415 11.6946 8.6387C11.7873 9.8885 11.9148 11.7425 11.9347 12.745C11.9684 12.7464 12.0051 12.748 12.0449 12.75C12.2701 12.7613 12.5921 12.7839 12.9823 12.8289C13.7617 12.9188 14.8175 13.0988 15.9188 13.4599C17.1145 13.852 17.9208 14.9298 17.9828 16.1828C18.0566 17.6745 17.9307 19.9072 16.9352 22.1941C16.6431 22.865 16.0006 23.2929 15.2839 23.3524C14.448 23.4218 13.1134 23.5 11.3448 23.5C9.2315 23.5 8.0215 23.3883 7.4435 23.3126C7.1271 23.2711 6.8336 23.143 6.5862 22.9475C4.33496 21.1684 2.45344 18.1973 1.79219 17.0842C1.59262 16.7482 1.50876 16.3382 1.6197 15.9401C1.81592 15.2359 2.14081 14.7076 2.46753 14.3242C3.09257 13.5907 4.11509 13.6648 4.85076 14.1165C5.5134 14.5233 6.0606 14.8958 6.44255 15.1669C6.5149 15.2182 6.58135 15.266 6.6415 15.3096C6.65645 12.5499 6.7915 10.0655 6.88735 8.62805C6.94605 7.7477 7.5383 6.9432 8.4595 6.81215ZM21 5.75C22.2427 5.75 23.25 6.75735 23.25 8C23.25 9.24265 22.2427 10.25 21 10.25C19.7573 10.25 18.75 9.24265 18.75 8C18.75 6.75735 19.7573 5.75 21 5.75ZM13.25 8C13.25 6.75735 14.2573 5.75 15.5 5.75C16.7427 5.75 17.75 6.75735 17.75 8C17.75 9.24265 16.7427 10.25 15.5 10.25C14.2573 10.25 13.25 9.24265 13.25 8ZM23.25 3C23.25 1.75736 22.2427 0.75 21 0.75C19.7573 0.75 18.75 1.75736 18.75 3C18.75 4.24264 19.7573 5.25 21 5.25C22.2427 5.25 23.25 4.24264 23.25 3Z" fill="url(#paint0_linear_668_48)"/>
</g>
<defs>
<linearGradient id="paint0_linear_668_48" x1="0.75" y1="12.125" x2="23.25" y2="12.125" gradientUnits="userSpaceOnUse">
<stop stop-color="#FAEC13"/>
<stop offset="1" stop-color="#FE6129"/>
</linearGradient>
<clipPath id="clip0_668_48">
<rect width="24" height="24" fill="white"/>
</clipPath>
</defs>
</svg>
