<svg width="24" height="24" viewBox="0 0 24 24" fill="none" xmlns="http://www.w3.org/2000/svg">
<g clip-path="url(#clip0_668_44)">
<path fill-rule="evenodd" clip-rule="evenodd" d="M4.98041 4.98091C3.46512 6.4962 2.57143 8.80819 2.57143 11.9999C2.57143 15.1917 3.46512 17.5036 4.98041 19.0189C6.49571 20.5343 8.80771 21.428 11.9994 21.428C15.1912 21.428 17.5032 20.5343 19.0185 19.0189C20.5337 17.5036 21.4276 15.1917 21.4276 11.9999C21.4276 11.2898 22.0032 10.7142 22.7133 10.7142C23.4233 10.7142 23.999 11.2898 23.999 11.9999C23.999 15.665 22.9642 18.7098 20.8368 20.8372C18.7094 22.9646 15.6645 23.9994 11.9994 23.9994C8.33438 23.9994 5.28952 22.9646 3.16214 20.8372C1.03477 18.7098 0 15.665 0 11.9999C0 8.33488 1.03477 5.29 3.16214 3.16264C5.28952 1.03526 8.33438 0.000488281 11.9994 0.000488281C12.7095 0.000488281 13.2852 0.576123 13.2852 1.2862C13.2852 1.99629 12.7095 2.57191 11.9994 2.57191C8.80771 2.57191 6.49571 3.46562 4.98041 4.98091ZM11.5392 6.3226C11.6963 7.01508 11.2624 7.70383 10.5699 7.861C9.59099 8.08317 8.91496 8.53855 8.46818 9.16029C8.01091 9.79661 7.71412 10.7198 7.71412 11.9992C7.71412 13.5453 8.14499 14.5716 8.78604 15.2127C9.4271 15.8537 10.4534 16.2846 11.9995 16.2846C13.3416 16.2846 14.2914 15.9584 14.9315 15.461C15.5585 14.9737 16.0131 14.226 16.1971 13.1267C16.3143 12.4263 16.9771 11.9536 17.6774 12.0709C18.3778 12.1881 18.8505 12.8509 18.7332 13.5512C18.4613 15.176 17.7285 16.544 16.5094 17.4913C15.3034 18.4286 13.7485 18.856 11.9995 18.856C9.98013 18.856 8.22089 18.2841 6.96777 17.0309C5.71464 15.7778 5.14269 14.0186 5.14269 11.9992C5.14269 10.3322 5.53063 8.84167 6.37997 7.65972C7.23981 6.46317 8.49225 5.6957 10.0008 5.35334C10.6933 5.19617 11.382 5.63013 11.5392 6.3226ZM16.3883 9.42712L12.9087 12.9067C12.4066 13.4088 11.5926 13.4088 11.0905 12.9067C10.5884 12.4046 10.5884 11.5905 11.0905 11.0884L14.5717 7.60716C14.1883 6.08796 14.6288 4.47105 15.7447 3.3551L18.4644 0.635384C18.6859 0.413837 19.0073 0.324493 19.3114 0.399918C19.6156 0.475342 19.858 0.704516 19.9502 1.00391L20.6681 3.33178L22.996 4.04968C23.2954 4.14201 23.5245 4.38439 23.5999 4.68849C23.6753 4.99257 23.586 5.31394 23.3645 5.5355L20.645 8.25515C19.528 9.37223 17.909 9.81254 16.3883 9.42712Z" fill="url(#paint0_linear_668_44)"/>
</g>
<defs>
<linearGradient id="paint0_linear_668_44" x1="-0.75" y1="11.7505" x2="24.75" y2="11.7505" gradientUnits="userSpaceOnUse">
<stop stop-color="#FAEC13"/>
<stop offset="1" stop-color="#FE6129"/>
</linearGradient>
<clipPath id="clip0_668_44">
<rect width="24" height="24" fill="white"/>
</clipPath>
</defs>
</svg>
