<svg width="24" height="24" viewBox="0 0 24 24" fill="none" xmlns="http://www.w3.org/2000/svg">
<g clip-path="url(#clip0_670_88)">
<path fill-rule="evenodd" clip-rule="evenodd" d="M0.25 1C0.25 0.585785 0.585785 0.25 1 0.25C3.64815 0.25 5.97475 1.04637 7.64395 2.64601C9.251 4.18611 10.1738 6.3992 10.2455 9.1511C11.0013 9.83395 11.939 10.9491 12.606 11.7774C13.0125 12.2822 13.1636 12.916 13.0123 13.508C12.859 14.1074 12.4126 14.5934 11.7764 14.8127C11.2924 14.9796 10.7664 15.1454 10.3205 15.2697L9.95345 18.3419C9.79015 19.7086 8.53165 20.7233 7.1266 20.4669C6.60405 20.3715 6.13015 20.2741 5.75 20.1917V23C5.75 23.4142 5.4142 23.75 5 23.75H0.25V1ZM13.2632 23.1374C13.3309 23.5009 13.6502 23.7539 14.0077 23.75H22.4954C22.8593 23.7529 23.1809 23.49 23.2408 23.1197L23.6304 20.7124C23.6324 20.7003 23.6341 20.6881 23.6355 20.6759C23.7929 19.2694 23.0138 17.9227 21.6706 17.4062C20.7989 17.071 19.9242 16.8095 19.2715 16.6325C19.068 16.5773 18.8851 16.5301 18.7294 16.4911C18.7156 16.215 18.6974 15.8591 18.6773 15.4743C18.6323 14.6145 18.5767 13.6022 18.5354 13.0157C18.4894 12.3621 18.1184 11.576 17.286 11.3369C17.1119 11.2869 16.9521 11.2838 16.8659 11.2831L16.2542 11.2785C16.1679 11.2778 16.0083 11.2785 15.8336 11.3257C14.9517 11.564 14.5813 12.4098 14.5609 13.0925L14.4263 17.5939L13.7808 18.1975C13.1331 18.8031 12.7183 19.6823 12.8004 20.6346C12.8025 20.6591 12.8058 20.6835 12.8103 20.7076L13.2632 23.1374Z" fill="url(#paint0_linear_670_88)"/>
</g>
<defs>
<linearGradient id="paint0_linear_670_88" x1="-2" y1="12" x2="24" y2="12" gradientUnits="userSpaceOnUse">
<stop stop-color="#FAEC13"/>
<stop offset="1" stop-color="#FE6129"/>
</linearGradient>
<clipPath id="clip0_670_88">
<rect width="24" height="24" fill="white"/>
</clipPath>
</defs>
</svg>
