<svg width="24" height="24" viewBox="0 0 24 24" fill="none" xmlns="http://www.w3.org/2000/svg">
<g clip-path="url(#clip0_668_61)">
<path fill-rule="evenodd" clip-rule="evenodd" d="M18 3C19.5977 3 20.9037 4.24892 20.9949 5.82373L21 6V20C21 20.3623 20.8041 20.6962 20.4878 20.873C20.211 21.0276 19.8801 21.0407 19.595 20.9144L19.4759 20.8517L16.75 19.1742L14.0241 20.8517C13.7384 21.0274 13.3864 21.047 13.0859 20.9103L12.9759 20.8517L10.25 19.1742L7.5241 20.8517C7.21556 21.0415 6.82845 21.0497 6.5122 20.873C6.23108 20.7158 6.04503 20.4346 6.00715 20.1195L6 20V14H4C3.48717 14 3.06449 13.614 3.00673 13.1166L3 13V5.5C3 4.17452 4.03154 3.08996 5.33562 3.00532L5.5 3H18ZM15 12H11C10.4477 12 10 12.4477 10 13C10 13.5523 10.4477 14 11 14H15C15.5523 14 16 13.5523 16 13C16 12.4477 15.5523 12 15 12ZM5.5 5C5.22386 5 5 5.22386 5 5.5V12H6V5.5C6 5.22386 5.77614 5 5.5 5ZM16 8H11C10.4477 8 10 8.44772 10 9C10 9.51283 10.386 9.93551 10.8834 9.99327L11 10H16C16.5523 10 17 9.55228 17 9C17 8.48717 16.614 8.06449 16.1166 8.00673L16 8Z" fill="url(#paint0_linear_668_61)"/>
</g>
<defs>
<linearGradient id="paint0_linear_668_61" x1="3" y1="12" x2="21" y2="12" gradientUnits="userSpaceOnUse">
<stop stop-color="#FAEC13"/>
<stop offset="1" stop-color="#FE6129"/>
</linearGradient>
<clipPath id="clip0_668_61">
<rect width="24" height="24" fill="white"/>
</clipPath>
</defs>
</svg>
