<svg width="24" height="24" viewBox="0 0 24 24" fill="none" xmlns="http://www.w3.org/2000/svg">
<path fill-rule="evenodd" clip-rule="evenodd" d="M12 22.7812C6.04568 22.7812 1.21875 17.9543 1.21875 12C1.21875 6.04568 6.04568 1.21875 12 1.21875C17.9543 1.21875 22.7812 6.04568 22.7812 12C22.7812 17.9543 17.9543 22.7812 12 22.7812ZM10.0833 6.48958C10.0833 5.43106 10.9415 4.57292 12 4.57292C13.0585 4.57292 13.9167 5.43106 13.9167 6.48958C13.9167 7.54811 13.0585 8.40625 12 8.40625C10.9415 8.40625 10.0833 7.54811 10.0833 6.48958ZM13.3802 10.6171C13.3465 10.0719 12.9976 9.64806 12.4522 9.61639C12.3208 9.60877 12.1707 9.60417 12 9.60417H10.3229C10.0424 9.60417 9.80805 9.61111 9.61313 9.6219C9.04455 9.65347 8.66476 10.0728 8.65053 10.6421C8.64756 10.7606 8.64583 10.8933 8.64583 11.0417C8.64583 11.19 8.64756 11.3227 8.65053 11.4412C8.66476 12.0105 9.04455 12.4299 9.61313 12.4614C9.80805 12.4722 10.0424 12.4792 10.3229 12.4792C10.4075 12.4792 10.4879 12.4785 10.5643 12.4773C10.5631 12.6296 10.5625 12.7898 10.5625 12.9583V15.8469C9.95401 15.8595 9.50004 15.8793 9.16707 15.8996C8.64291 15.9317 8.2222 16.2543 8.18349 16.778C8.17309 16.9189 8.16667 17.0823 8.16667 17.2708C8.16667 17.4594 8.17309 17.6227 8.18349 17.7637C8.2222 18.2874 8.64291 18.61 9.16707 18.642C9.72266 18.676 10.6151 18.7083 12 18.7083C13.3849 18.7083 14.2773 18.676 14.8329 18.642C15.3571 18.61 15.7778 18.2874 15.8165 17.7637C15.8269 17.6227 15.8333 17.4594 15.8333 17.2708C15.8333 17.0823 15.8269 16.9189 15.8165 16.778C15.7778 16.2543 15.3571 15.9317 14.8329 15.8996C14.5 15.8793 14.046 15.8595 13.4375 15.8469V12.9583C13.4375 11.8549 13.4107 11.1087 13.3802 10.6171Z" fill="url(#paint0_linear_668_66)"/>
<defs>
<linearGradient id="paint0_linear_668_66" x1="1.21875" y1="12" x2="22.7812" y2="12" gradientUnits="userSpaceOnUse">
<stop stop-color="#FAEC13"/>
<stop offset="1" stop-color="#FE6129"/>
</linearGradient>
</defs>
</svg>
