<svg width="24" height="24" viewBox="0 0 24 24" fill="none" xmlns="http://www.w3.org/2000/svg">
<path fill-rule="evenodd" clip-rule="evenodd" d="M16.4337 6.00972L19.1025 3.34092L17.4565 1.69482L14.7876 4.36362L14.6878 4.26382C13.7787 3.35472 12.3047 3.35472 11.3957 4.26382L8.14488 7.51452L7.80398 7.85552V13.0932L5.81698 15.0801L4.99388 15.9033L5.81698 16.7263L6.44888 17.3582L4.17088 19.6362C3.95258 19.8544 3.65658 19.9771 3.34788 19.9771H0.238281V22.305H3.34788C4.27398 22.305 5.16208 21.9371 5.81698 21.2822L8.09488 19.0043L8.72678 19.6362L9.54988 20.4592L10.3729 19.6362L12.3599 17.6492H17.5976L17.9386 17.3083L21.1894 14.0575C22.0985 13.1483 22.0984 11.6744 21.1894 10.7653L21.0895 10.6655L23.7583 7.99672L22.1122 6.35062L19.4434 9.01942L16.4337 6.00972Z" fill="url(#paint0_linear_668_52)"/>
<defs>
<linearGradient id="paint0_linear_668_52" x1="0.238281" y1="11.9999" x2="23.7583" y2="11.9999" gradientUnits="userSpaceOnUse">
<stop stop-color="#FAEC13"/>
<stop offset="1" stop-color="#FE6129"/>
</linearGradient>
</defs>
</svg>
