<svg width="24" height="24" viewBox="0 0 24 24" fill="none" xmlns="http://www.w3.org/2000/svg">
<path d="M12.0013 1.21875C13.7214 1.21875 15.1159 2.6132 15.1159 4.33333C15.1159 6.05349 13.7214 7.44792 12.0013 7.44792C10.2811 7.44792 8.88672 6.05349 8.88672 4.33333C8.88672 2.6132 10.2811 1.21875 12.0013 1.21875Z" fill="url(#paint0_linear_668_82)"/>
<path d="M2.58523 7.21547C2.80713 6.62662 3.45407 6.34051 4.0402 6.5295L8.43634 7.94701C8.88772 8.09254 9.35903 8.16666 9.83331 8.16666H14.1678C14.6421 8.16666 15.1135 8.09254 15.5649 7.94697L19.9603 6.52954C20.5464 6.34051 21.1934 6.62662 21.4153 7.21552C21.6157 7.74739 21.7614 8.20442 21.8628 8.55503C22.0234 9.11 21.7295 9.66818 21.2185 9.89478L16.1152 12.1577L15.8666 21.1252C15.8445 21.9246 15.2568 22.61 14.4452 22.6939C14.1276 22.7268 13.7735 22.7561 13.4207 22.7709C13.0302 22.7874 12.715 22.4818 12.6932 22.1039L12.386 16.7779C12.3786 16.6511 12.2737 16.5521 12.1468 16.5521H11.8535C11.7265 16.5521 11.6216 16.6511 11.6143 16.7779L11.307 22.1039C11.2852 22.4818 10.9701 22.7874 10.5796 22.7709C10.2272 22.7561 9.87336 22.7268 9.55601 22.6939C8.7443 22.61 8.1567 21.9246 8.13461 21.1252L7.88655 12.1577L2.78213 9.89478C2.27107 9.66818 1.97713 9.11 2.1377 8.55498C2.23914 8.20437 2.3848 7.74739 2.58523 7.21547Z" fill="url(#paint1_linear_668_82)"/>
<defs>
<linearGradient id="paint0_linear_668_82" x1="8.88672" y1="4.33333" x2="15.1159" y2="4.33333" gradientUnits="userSpaceOnUse">
<stop stop-color="#FAEC13"/>
<stop offset="1" stop-color="#FE6129"/>
</linearGradient>
<linearGradient id="paint1_linear_668_82" x1="2.09375" y1="14.6216" x2="21.9068" y2="14.6216" gradientUnits="userSpaceOnUse">
<stop stop-color="#FAEC13"/>
<stop offset="1" stop-color="#FE6129"/>
</linearGradient>
</defs>
</svg>
